<svg width="1234" height="658" xmlns="http://www.w3.org/2000/svg"><g><path d="M-94.84967920929193,-30.66164935939014L-110.6402431614697,357.90273198857903L-64.28270160220563,238.53378860279918Z" fill="#d6faf2" stroke="#d6faf2"></path><path d="M-94.84967920929193,-30.66164935939014L-64.28270160220563,238.53378860279918L-42.4141351506114,83.84020403958857Z" fill="#eeffff" stroke="#eeffff"></path><path d="M-94.84967920929193,-30.66164935939014L-42.4141351506114,83.84020403958857L19.086105404421687,-99.18537933379412Z" fill="#fbfeff" stroke="#fbfeff"></path><path d="M19.086105404421687,-99.18537933379412L-42.4141351506114,83.84020403958857L86.74434078857303,105.87822480127215Z" fill="#effbfc" stroke="#effbfc"></path><path d="M19.086105404421687,-99.18537933379412L86.74434078857303,105.87822480127215L221.79766581393778,20.78959370031953Z" fill="#e8f7f8" stroke="#e8f7f8"></path><path d="M19.086105404421687,-99.18537933379412L221.79766581393778,20.78959370031953L228.02704917266965,-77.51440864987671Z" fill="#e4f5f5" stroke="#e4f5f5"></path><path d="M19.086105404421687,-99.18537933379412L228.02704917266965,-77.51440864987671L488.62954979762435,-121.75356471911073Z" fill="#d9f1f1" stroke="#d9f1f1"></path><path d="M228.02704917266965,-77.51440864987671L221.79766581393778,20.78959370031953L374.30125440470874,15.329035380855203Z" fill="#d4efed" stroke="#d4efed"></path><path d="M228.02704917266965,-77.51440864987671L374.30125440470874,15.329035380855203L380.09657621383667,-62.95803892426193Z" fill="#ccece7" stroke="#ccece7"></path><path d="M228.02704917266965,-77.51440864987671L380.09657621383667,-62.95803892426193L488.62954979762435,-121.75356471911073Z" fill="#c6e9e2" stroke="#c6e9e2"></path><path d="M380.09657621383667,-62.95803892426193L374.30125440470874,15.329035380855203L470.67189945839345,77.18922422267497Z" fill="#bee6dc" stroke="#bee6dc"></path><path d="M380.09657621383667,-62.95803892426193L470.67189945839345,77.18922422267497L488.62954979762435,-121.75356471911073Z" fill="#bae4d8" stroke="#bae4d8"></path><path d="M488.62954979762435,-121.75356471911073L470.67189945839345,77.18922422267497L622.998429313302,-22.995097087696195Z" fill="#afdfcd" stroke="#afdfcd"></path><path d="M488.62954979762435,-121.75356471911073L622.998429313302,-22.995097087696195L812.377318572253,-69.1663955245167Z" fill="#a1d7bd" stroke="#a1d7bd"></path><path d="M488.62954979762435,-121.75356471911073L812.377318572253,-69.1663955245167L994.6860632300377,-100.41662815958261Z" fill="#94cead" stroke="#94cead"></path><path d="M488.62954979762435,-121.75356471911073L994.6860632300377,-100.41662815958261L1104.7508171852678,-126.91543998196721Z" fill="#8bc4a3" stroke="#8bc4a3"></path><path d="M622.998429313302,-22.995097087696195L470.67189945839345,77.18922422267497L699.9214001186192,67.4551145453006Z" fill="#a0dac3" stroke="#a0dac3"></path><path d="M622.998429313302,-22.995097087696195L699.9214001186192,67.4551145453006L812.377318572253,-69.1663955245167Z" fill="#99d3b3" stroke="#99d3b3"></path><path d="M812.377318572253,-69.1663955245167L699.9214001186192,67.4551145453006L844.707194371149,53.90202205628157Z" fill="#8fccab" stroke="#8fccab"></path><path d="M812.377318572253,-69.1663955245167L844.707194371149,53.90202205628157L994.6860632300377,-100.41662815958261Z" fill="#89c1a0" stroke="#89c1a0"></path><path d="M994.6860632300377,-100.41662815958261L844.707194371149,53.90202205628157L1010.7535933423787,123.59140120446682Z" fill="#7fba9a" stroke="#7fba9a"></path><path d="M994.6860632300377,-100.41662815958261L1010.7535933423787,123.59140120446682L1104.7508171852678,-126.91543998196721Z" fill="#80b191" stroke="#80b191"></path><path d="M1104.7508171852678,-126.91543998196721L1010.7535933423787,123.59140120446682L1169.527477864176,124.4325845874846Z" fill="#79ab8b" stroke="#79ab8b"></path><path d="M1104.7508171852678,-126.91543998196721L1169.527477864176,124.4325845874846L1226.9618657324463,-99.45637978613377Z" fill="#80a383" stroke="#80a383"></path><path d="M1104.7508171852678,-126.91543998196721L1226.9618657324463,-99.45637978613377L1398.3110850770026,-81.46616147831082Z" fill="#809b80" stroke="#809b80"></path><path d="M1226.9618657324463,-99.45637978613377L1169.527477864176,124.4325845874846L1319.5908247958869,95.72710113599896Z" fill="#799b80" stroke="#799b80"></path><path d="M1226.9618657324463,-99.45637978613377L1319.5908247958869,95.72710113599896L1398.3110850770026,-81.46616147831082Z" fill="#809380" stroke="#809380"></path><path d="M1398.3110850770026,-81.46616147831082L1319.5908247958869,95.72710113599896L1455.0248378422111,82.47352827340364Z" fill="#7a8b80" stroke="#7a8b80"></path><path d="M-42.4141351506114,83.84020403958857L-64.28270160220563,238.53378860279918L69.168530870229,239.02725582942367Z" fill="#cff7f1" stroke="#cff7f1"></path><path d="M-42.4141351506114,83.84020403958857L69.168530870229,239.02725582942367L86.74434078857303,105.87822480127215Z" fill="#d8f9f9" stroke="#d8f9f9"></path><path d="M86.74434078857303,105.87822480127215L69.168530870229,239.02725582942367L214.98819367960095,172.58199015632272Z" fill="#c4f3ee" stroke="#c4f3ee"></path><path d="M86.74434078857303,105.87822480127215L214.98819367960095,172.58199015632272L221.79766581393778,20.78959370031953Z" fill="#d1f4f4" stroke="#d1f4f4"></path><path d="M221.79766581393778,20.78959370031953L214.98819367960095,172.58199015632272L374.30125440470874,15.329035380855203Z" fill="#caefee" stroke="#caefee"></path><path d="M374.30125440470874,15.329035380855203L214.98819367960095,172.58199015632272L368.6291051656008,190.27284893207252Z" fill="#b9ece8" stroke="#b9ece8"></path><path d="M374.30125440470874,15.329035380855203L368.6291051656008,190.27284893207252L470.67189945839345,77.18922422267497Z" fill="#b1e7dd" stroke="#b1e7dd"></path><path d="M470.67189945839345,77.18922422267497L368.6291051656008,190.27284893207252L519.1702401079237,259.028903497383Z" fill="#95dfcd" stroke="#95dfcd"></path><path d="M470.67189945839345,77.18922422267497L519.1702401079237,259.028903497383L699.9214001186192,67.4551145453006Z" fill="#94dcc8" stroke="#94dcc8"></path><path d="M699.9214001186192,67.4551145453006L519.1702401079237,259.028903497383L649.6007129363716,269.8793102055788Z" fill="#77d2b1" stroke="#77d2b1"></path><path d="M699.9214001186192,67.4551145453006L649.6007129363716,269.8793102055788L831.3610920589417,210.32972674816847Z" fill="#70cda6" stroke="#70cda6"></path><path d="M699.9214001186192,67.4551145453006L831.3610920589417,210.32972674816847L844.707194371149,53.90202205628157Z" fill="#7fcbaa" stroke="#7fcbaa"></path><path d="M844.707194371149,53.90202205628157L831.3610920589417,210.32972674816847L1010.7535933423787,123.59140120446682Z" fill="#73c09f" stroke="#73c09f"></path><path d="M1010.7535933423787,123.59140120446682L831.3610920589417,210.32972674816847L1001.098211305216,246.80384905077517Z" fill="#58b58c" stroke="#58b58c"></path><path d="M1010.7535933423787,123.59140120446682L1001.098211305216,246.80384905077517L1169.527477864176,124.4325845874846Z" fill="#5fab87" stroke="#5fab87"></path><path d="M1169.527477864176,124.4325845874846L1001.098211305216,246.80384905077517L1143.678892152384,281.66342524811625Z" fill="#4da276" stroke="#4da276"></path><path d="M1169.527477864176,124.4325845874846L1143.678892152384,281.66342524811625L1321.4303757157177,273.8996347691864Z" fill="#49966a" stroke="#49966a"></path><path d="M1169.527477864176,124.4325845874846L1321.4303757157177,273.8996347691864L1319.5908247958869,95.72710113599896Z" fill="#5f9578" stroke="#5f9578"></path><path d="M1319.5908247958869,95.72710113599896L1321.4303757157177,273.8996347691864L1453.59295880422,235.49773153848946Z" fill="#528770" stroke="#528770"></path><path d="M1319.5908247958869,95.72710113599896L1453.59295880422,235.49773153848946L1455.0248378422111,82.47352827340364Z" fill="#68887e" stroke="#68887e"></path><path d="M-64.28270160220563,238.53378860279918L-110.6402431614697,357.90273198857903L69.168530870229,239.02725582942367Z" fill="#b3efdd" stroke="#b3efdd"></path><path d="M69.168530870229,239.02725582942367L-110.6402431614697,357.90273198857903L122.93613103218377,426.51723752729595Z" fill="#9ce3c6" stroke="#9ce3c6"></path><path d="M69.168530870229,239.02725582942367L122.93613103218377,426.51723752729595L220.18583505414426,369.2861868068576Z" fill="#8ddebf" stroke="#8ddebf"></path><path d="M69.168530870229,239.02725582942367L220.18583505414426,369.2861868068576L214.98819367960095,172.58199015632272Z" fill="#a0e9d8" stroke="#a0e9d8"></path><path d="M214.98819367960095,172.58199015632272L220.18583505414426,369.2861868068576L365.2785847708583,323.5779326967895Z" fill="#8ce0c9" stroke="#8ce0c9"></path><path d="M214.98819367960095,172.58199015632272L365.2785847708583,323.5779326967895L368.6291051656008,190.27284893207252Z" fill="#97e3d2" stroke="#97e3d2"></path><path d="M368.6291051656008,190.27284893207252L365.2785847708583,323.5779326967895L519.1702401079237,259.028903497383Z" fill="#7ddabf" stroke="#7ddabf"></path><path d="M519.1702401079237,259.028903497383L365.2785847708583,323.5779326967895L480.3296907339245,354.98724058270454Z" fill="#69d0aa" stroke="#69d0aa"></path><path d="M519.1702401079237,259.028903497383L480.3296907339245,354.98724058270454L649.6007129363716,269.8793102055788Z" fill="#61cda2" stroke="#61cda2"></path><path d="M649.6007129363716,269.8793102055788L480.3296907339245,354.98724058270454L733.9093415345997,424.66607546433806Z" fill="#4ac087" stroke="#4ac087"></path><path d="M649.6007129363716,269.8793102055788L733.9093415345997,424.66607546433806L836.3356141000986,395.9346749447286Z" fill="#38b672" stroke="#38b672"></path><path d="M649.6007129363716,269.8793102055788L836.3356141000986,395.9346749447286L831.3610920589417,210.32972674816847Z" fill="#48bd85" stroke="#48bd85"></path><path d="M831.3610920589417,210.32972674816847L836.3356141000986,395.9346749447286L1001.098211305216,246.80384905077517Z" fill="#40b27c" stroke="#40b27c"></path><path d="M1001.098211305216,246.80384905077517L836.3356141000986,395.9346749447286L970.0626560579985,399.0144311450422Z" fill="#2ba463" stroke="#2ba463"></path><path d="M1001.098211305216,246.80384905077517L970.0626560579985,399.0144311450422L1113.3324754144996,405.0958164129406Z" fill="#269959" stroke="#269959"></path><path d="M1001.098211305216,246.80384905077517L1113.3324754144996,405.0958164129406L1143.678892152384,281.66342524811625Z" fill="#30995f" stroke="#30995f"></path><path d="M1143.678892152384,281.66342524811625L1113.3324754144996,405.0958164129406L1258.3360004704446,331.01506129838526Z" fill="#298b4d" stroke="#298b4d"></path><path d="M1143.678892152384,281.66342524811625L1258.3360004704446,331.01506129838526L1321.4303757157177,273.8996347691864Z" fill="#348a58" stroke="#348a58"></path><path d="M1321.4303757157177,273.8996347691864L1258.3360004704446,331.01506129838526L1448.2946682348847,369.6522356942296Z" fill="#2d7b4f" stroke="#2d7b4f"></path><path d="M1321.4303757157177,273.8996347691864L1448.2946682348847,369.6522356942296L1453.59295880422,235.49773153848946Z" fill="#357959" stroke="#357959"></path><path d="M-110.6402431614697,357.90273198857903L-105.11331514455378,475.7887551560998L122.93613103218377,426.51723752729595Z" fill="#8fd8b2" stroke="#8fd8b2"></path><path d="M122.93613103218377,426.51723752729595L-105.11331514455378,475.7887551560998L122.95017781667411,475.23489067330956Z" fill="#7fcba5" stroke="#7fcba5"></path><path d="M122.93613103218377,426.51723752729595L122.95017781667411,475.23489067330956L236.6813107766211,481.93598706275225Z" fill="#71c69f" stroke="#71c69f"></path><path d="M122.93613103218377,426.51723752729595L236.6813107766211,481.93598706275225L220.18583505414426,369.2861868068576Z" fill="#74cda5" stroke="#74cda5"></path><path d="M220.18583505414426,369.2861868068576L236.6813107766211,481.93598706275225L365.2785847708583,323.5779326967895Z" fill="#70d0a7" stroke="#70d0a7"></path><path d="M365.2785847708583,323.5779326967895L236.6813107766211,481.93598706275225L316.00397494621575,565.1798401493579Z" fill="#5ebf94" stroke="#5ebf94"></path><path d="M365.2785847708583,323.5779326967895L316.00397494621575,565.1798401493579L480.3296907339245,354.98724058270454Z" fill="#5ac494" stroke="#5ac494"></path><path d="M480.3296907339245,354.98724058270454L316.00397494621575,565.1798401493579L553.0945360288024,552.2564104758203Z" fill="#41ae7a" stroke="#41ae7a"></path><path d="M480.3296907339245,354.98724058270454L553.0945360288024,552.2564104758203L733.9093415345997,424.66607546433806Z" fill="#39b072" stroke="#39b072"></path><path d="M733.9093415345997,424.66607546433806L553.0945360288024,552.2564104758203L734.7288791555911,543.958083987236Z" fill="#229b58" stroke="#229b58"></path><path d="M733.9093415345997,424.66607546433806L734.7288791555911,543.958083987236L817.9850350879133,492.6550396811217Z" fill="#1c9950" stroke="#1c9950"></path><path d="M733.9093415345997,424.66607546433806L817.9850350879133,492.6550396811217L836.3356141000986,395.9346749447286Z" fill="#23a158" stroke="#23a158"></path><path d="M836.3356141000986,395.9346749447286L817.9850350879133,492.6550396811217L938.9706338848919,482.677062805742Z" fill="#19954d" stroke="#19954d"></path><path d="M836.3356141000986,395.9346749447286L938.9706338848919,482.677062805742L970.0626560579985,399.0144311450422Z" fill="#1b974f" stroke="#1b974f"></path><path d="M970.0626560579985,399.0144311450422L938.9706338848919,482.677062805742L1113.3324754144996,405.0958164129406Z" fill="#148d45" stroke="#148d45"></path><path d="M1113.3324754144996,405.0958164129406L938.9706338848919,482.677062805742L1163.5413318313658,492.0612053386867Z" fill="#0d7f37" stroke="#0d7f37"></path><path d="M1113.3324754144996,405.0958164129406L1163.5413318313658,492.0612053386867L1258.3360004704446,331.01506129838526Z" fill="#177f37" stroke="#177f37"></path><path d="M1258.3360004704446,331.01506129838526L1163.5413318313658,492.0612053386867L1331.0024088341743,478.3897421322763Z" fill="#137130" stroke="#137130"></path><path d="M1258.3360004704446,331.01506129838526L1331.0024088341743,478.3897421322763L1448.2946682348847,369.6522356942296Z" fill="#1b7139" stroke="#1b7139"></path><path d="M1448.2946682348847,369.6522356942296L1331.0024088341743,478.3897421322763L1368.5466413665563,565.0925349164754Z" fill="#0b5a27" stroke="#0b5a27"></path><path d="M1448.2946682348847,369.6522356942296L1368.5466413665563,565.0925349164754L1402.1895267348737,726.9010168500245Z" fill="#004414" stroke="#004414"></path><path d="M1448.2946682348847,369.6522356942296L1402.1895267348737,726.9010168500245L1431.9794394169003,777.0378020592034Z" fill="#003104" stroke="#003104"></path><path d="M-105.11331514455378,475.7887551560998L-92.22145481966436,628.8493156805634L122.95017781667411,475.23489067330956Z" fill="#7abe99" stroke="#7abe99"></path><path d="M122.95017781667411,475.23489067330956L-92.22145481966436,628.8493156805634L116.30374828353524,730.4174922499806Z" fill="#71a782" stroke="#71a782"></path><path d="M122.95017781667411,475.23489067330956L116.30374828353524,730.4174922499806L205.7117845863104,691.5257574152201Z" fill="#659d78" stroke="#659d78"></path><path d="M122.95017781667411,475.23489067330956L205.7117845863104,691.5257574152201L236.6813107766211,481.93598706275225Z" fill="#60af89" stroke="#60af89"></path><path d="M236.6813107766211,481.93598706275225L205.7117845863104,691.5257574152201L316.00397494621575,565.1798401493579Z" fill="#58a57e" stroke="#58a57e"></path><path d="M316.00397494621575,565.1798401493579L205.7117845863104,691.5257574152201L362.4207921512425,795.0411589443684Z" fill="#528a6b" stroke="#528a6b"></path><path d="M316.00397494621575,565.1798401493579L362.4207921512425,795.0411589443684L432.5832477584481,630.638415645808Z" fill="#468962" stroke="#468962"></path><path d="M316.00397494621575,565.1798401493579L432.5832477584481,630.638415645808L553.0945360288024,552.2564104758203Z" fill="#3c9967" stroke="#3c9967"></path><path d="M553.0945360288024,552.2564104758203L432.5832477584481,630.638415645808L516.4691266603768,674.5208982378244Z" fill="#328c56" stroke="#328c56"></path><path d="M553.0945360288024,552.2564104758203L516.4691266603768,674.5208982378244L683.1296846363693,655.484653506428Z" fill="#298448" stroke="#298448"></path><path d="M553.0945360288024,552.2564104758203L683.1296846363693,655.484653506428L734.7288791555911,543.958083987236Z" fill="#208a48" stroke="#208a48"></path><path d="M734.7288791555911,543.958083987236L683.1296846363693,655.484653506428L879.4415565021336,685.1806670799851Z" fill="#147730" stroke="#147730"></path><path d="M734.7288791555911,543.958083987236L879.4415565021336,685.1806670799851L817.9850350879133,492.6550396811217Z" fill="#107f37" stroke="#107f37"></path><path d="M817.9850350879133,492.6550396811217L879.4415565021336,685.1806670799851L938.9706338848919,482.677062805742Z" fill="#0a7d35" stroke="#0a7d35"></path><path d="M938.9706338848919,482.677062805742L879.4415565021336,685.1806670799851L918.182592317462,706.0713039245456Z" fill="#076821" stroke="#076821"></path><path d="M938.9706338848919,482.677062805742L918.182592317462,706.0713039245456L1169.3220195919275,692.1541143581271Z" fill="#005d17" stroke="#005d17"></path><path d="M938.9706338848919,482.677062805742L1169.3220195919275,692.1541143581271L1163.5413318313658,492.0612053386867Z" fill="#00661f" stroke="#00661f"></path><path d="M1163.5413318313658,492.0612053386867L1169.3220195919275,692.1541143581271L1306.7087344452739,623.6300585791469Z" fill="#004d09" stroke="#004d09"></path><path d="M1163.5413318313658,492.0612053386867L1306.7087344452739,623.6300585791469L1331.0024088341743,478.3897421322763Z" fill="#005919" stroke="#005919"></path><path d="M1331.0024088341743,478.3897421322763L1306.7087344452739,623.6300585791469L1368.5466413665563,565.0925349164754Z" fill="#004b13" stroke="#004b13"></path><path d="M1368.5466413665563,565.0925349164754L1306.7087344452739,623.6300585791469L1402.1895267348737,726.9010168500245Z" fill="#003500" stroke="#003500"></path><path d="M-92.22145481966436,628.8493156805634L-66.638427330181,869.3654561508447L48.835978992283344,806.9574933126569Z" fill="#7b8580" stroke="#7b8580"></path><path d="M-92.22145481966436,628.8493156805634L48.835978992283344,806.9574933126569L116.30374828353524,730.4174922499806Z" fill="#748d7d" stroke="#748d7d"></path><path d="M116.30374828353524,730.4174922499806L48.835978992283344,806.9574933126569L170.80588219687343,881.2927574291825Z" fill="#697778" stroke="#697778"></path><path d="M116.30374828353524,730.4174922499806L170.80588219687343,881.2927574291825L205.7117845863104,691.5257574152201Z" fill="#637c75" stroke="#637c75"></path><path d="M205.7117845863104,691.5257574152201L170.80588219687343,881.2927574291825L362.4207921512425,795.0411589443684Z" fill="#597371" stroke="#597371"></path><path d="M432.5832477584481,630.638415645808L362.4207921512425,795.0411589443684L516.4691266603768,674.5208982378244Z" fill="#3c7c59" stroke="#3c7c59"></path><path d="M516.4691266603768,674.5208982378244L362.4207921512425,795.0411589443684L524.3174944538623,833.2198045402765Z" fill="#376a55" stroke="#376a55"></path><path d="M516.4691266603768,674.5208982378244L524.3174944538623,833.2198045402765L648.3711891621351,851.7865593452007Z" fill="#2b5f49" stroke="#2b5f49"></path><path d="M516.4691266603768,674.5208982378244L648.3711891621351,851.7865593452007L683.1296846363693,655.484653506428Z" fill="#256a41" stroke="#256a41"></path><path d="M683.1296846363693,655.484653506428L648.3711891621351,851.7865593452007L824.0020085312426,820.6586989481002Z" fill="#195833" stroke="#195833"></path><path d="M683.1296846363693,655.484653506428L824.0020085312426,820.6586989481002L879.4415565021336,685.1806670799851Z" fill="#115e2a" stroke="#115e2a"></path><path d="M879.4415565021336,685.1806670799851L824.0020085312426,820.6586989481002L918.182592317462,706.0713039245456Z" fill="#0a5122" stroke="#0a5122"></path><path d="M918.182592317462,706.0713039245456L824.0020085312426,820.6586989481002L980.48842811957,796.7291327286512Z" fill="#07451e" stroke="#07451e"></path><path d="M918.182592317462,706.0713039245456L980.48842811957,796.7291327286512L1169.3220195919275,692.1541143581271Z" fill="#004313" stroke="#004313"></path><path d="M1169.3220195919275,692.1541143581271L980.48842811957,796.7291327286512L1138.4263146389276,874.225551020354Z" fill="#002e0b" stroke="#002e0b"></path><path d="M1169.3220195919275,692.1541143581271L1138.4263146389276,874.225551020354L1250.068244850263,766.1263698153198Z" fill="#002602" stroke="#002602"></path><path d="M1169.3220195919275,692.1541143581271L1250.068244850263,766.1263698153198L1306.7087344452739,623.6300585791469Z" fill="#003400" stroke="#003400"></path><path d="M1306.7087344452739,623.6300585791469L1250.068244850263,766.1263698153198L1402.1895267348737,726.9010168500245Z" fill="#002900" stroke="#002900"></path><path d="M1402.1895267348737,726.9010168500245L1250.068244850263,766.1263698153198L1431.9794394169003,777.0378020592034Z" fill="#001900" stroke="#001900"></path><path d="M-66.638427330181,869.3654561508447L170.80588219687343,881.2927574291825L48.835978992283344,806.9574933126569Z" fill="#717a7b" stroke="#717a7b"></path><path d="M170.80588219687343,881.2927574291825L1138.4263146389276,874.225551020354L648.3711891621351,851.7865593452007Z" fill="#21573c" stroke="#21573c"></path><path d="M170.80588219687343,881.2927574291825L648.3711891621351,851.7865593452007L524.3174944538623,833.2198045402765Z" fill="#3a6458" stroke="#3a6458"></path><path d="M170.80588219687343,881.2927574291825L524.3174944538623,833.2198045402765L362.4207921512425,795.0411589443684Z" fill="#496a64" stroke="#496a64"></path><path d="M648.3711891621351,851.7865593452007L1138.4263146389276,874.225551020354L824.0020085312426,820.6586989481002Z" fill="#0b4322" stroke="#0b4322"></path><path d="M824.0020085312426,820.6586989481002L1138.4263146389276,874.225551020354L980.48842811957,796.7291327286512Z" fill="#013717" stroke="#013717"></path><path d="M1138.4263146389276,874.225551020354L1431.9794394169003,777.0378020592034L1250.068244850263,766.1263698153198Z" fill="#001800" stroke="#001800"></path></g></svg>